<svg width="211" height="153" viewBox="0 0 211 153" fill="none" xmlns="http://www.w3.org/2000/svg">
<path fill-rule="evenodd" clip-rule="evenodd" d="M77.544 75.8813L75.9122 80.9541H79.1681L77.544 75.8813ZM50.4163 67.5605C53.4835 67.5116 57.0236 68.3969 57.286 72.1944C57.4218 74.1608 56.3 76.2547 54.3632 76.8045C57.8477 77.7586 58.3514 82.7489 56.5395 84.5718C54.0639 87.0623 50.1528 86.9523 47.0625 87.0549H41.2996L41.3533 67.5607L50.4163 67.5605ZM46.8552 83.4859H49.1508C50.2141 83.4859 50.9837 83.2834 51.4693 82.8841C51.9501 82.4845 52.1707 81.8675 52.126 81.0229C52.0858 80.2642 51.8415 79.6927 51.3892 79.3133C50.9369 78.9338 50.2755 78.7415 49.4108 78.7415H46.7177L46.7211 80.4004C46.7221 80.608 46.725 80.8507 46.7349 81.1289C46.7448 81.4071 46.7681 81.8472 46.7998 82.4491L46.8552 83.4859ZM46.6801 75.3394H48.3402C49.7421 75.3394 50.7452 75.1617 51.35 74.8119C51.9488 74.4617 52.2263 73.8921 52.1764 73.1035C52.1286 72.3512 51.8616 71.8236 51.3749 71.5206C50.8886 71.2231 50.0429 71.0713 48.8434 71.0713H46.6977C46.6923 71.1757 46.691 71.4476 46.6886 71.8966C46.6863 72.3459 46.6871 72.7378 46.6837 73.0771L46.6801 75.3394ZM137.841 71.0726C141.096 70.8713 143.035 72.6524 143.148 74.8896C143.256 77.0528 142.401 78.558 139.886 79.5486L143.908 87.0578H139.3L134.827 78.0262L136.693 78.0172C137.742 78.0119 138.562 77.094 138.598 75.9878C138.65 74.3787 137.614 73.7879 136.166 73.7892L134.582 73.7906L134.607 87.0581H130.293L130.3 71.0729L137.841 71.0726ZM97.2957 71.1667H101.619V87.0462H97.2957V71.1667ZM102.905 71.1667H107.228V84.3697H112.574V87.0023L102.905 87.0462V71.1667ZM144.112 87.0991L144.099 70.8388H155.21L155.22 73.588L148.527 73.5557L148.521 77.1792L154.585 77.1472L154.541 79.9516L148.514 79.9508L148.479 84.1976L155.186 84.2208L155.197 87.0991H144.112ZM155.828 70.8179H160.209L163.034 80.9118L166.667 70.8179H171.049L165.34 87.0739H160.44L155.828 70.8179ZM119.012 76.2142H120.604C121.858 76.2142 122.737 75.9789 123.245 75.5002C123.751 75.0237 124.004 74.4102 124.004 73.6692C124.004 72.9443 123.781 72.329 123.343 71.8276C122.904 71.3254 122.079 71.0705 120.864 71.0705H119.012V76.2142ZM113.695 67.6853H122.324C124.265 67.6853 126.605 68.3459 127.698 69.2556C129.1 70.4234 129.408 71.807 129.479 73.1662C129.694 77.2268 126.495 79.314 122.236 79.314H119.012V87.0523H113.695V67.6853ZM84.7751 84.2684L89.8347 84.2679C90.6866 84.2679 91.9007 83.6338 91.4221 82.2645C91.2826 81.8657 90.9368 81.4288 90.2333 81.0409C89.3287 80.5419 87.9457 80.0849 86.8574 79.4841C85.8437 78.9245 84.8481 77.9685 84.4454 77.2032C83.6935 75.7739 83.7795 73.6475 85.0954 72.3887C85.9395 71.5816 87.4285 71.0945 88.9782 71.1847L95.7546 71.1982L95.7387 73.8892L90.0574 73.9143C88.9127 73.9191 88.1182 75.1292 88.7623 75.895C90.0197 77.391 92.9235 78.0077 94.1734 78.8402C96.421 80.3364 96.8941 83.4172 95.2875 85.3675C94.168 86.7259 92.2028 86.9988 90.1244 87.0068L83.3901 87.0327L83.389 87.0237H81.0345L80.0787 83.5097H75.2669L73.7907 87.0237L67.2855 86.9986L62.8701 78.0262L64.7366 78.0172C65.7854 78.0119 66.6053 77.2701 66.6409 76.164C66.6931 74.5551 65.657 73.7879 64.2097 73.7892L62.6249 73.7906L62.6501 87.0581H58.3361L58.3431 71.0729H65.8846C69.1397 70.8716 71.0786 72.6524 71.1908 74.8899C71.2997 77.053 70.3862 78.6754 67.8719 79.6663L70.3779 84.2063L75.159 71.1636L80.5065 71.1755L84.7751 84.2684Z" fill="#211E1E"/>
</svg>
